<svg xmlns="http://www.w3.org/2000/svg" viewBox="0 0 1600 1000" preserveAspectRatio="xMidYMid slice">
  <defs>
    <linearGradient id="bg" x1="0" y1="1" x2="1" y2="0">
      <stop offset="0" stop-color="#070a12"/>
      <stop offset="0.5" stop-color="#111927"/>
      <stop offset="1" stop-color="#1b1530"/>
    </linearGradient>
    <linearGradient id="veil" x1="0" y1="0" x2="1" y2="1">
      <stop offset="0" stop-color="#22d3ee" stop-opacity="0.22"/>
      <stop offset="0.45" stop-color="#a78bfa" stop-opacity="0.20"/>
      <stop offset="1" stop-color="#34d399" stop-opacity="0.12"/>
    </linearGradient>
    <filter id="blur">
      <feGaussianBlur stdDeviation="28"/>
    </filter>
    <filter id="grain">
      <feTurbulence type="fractalNoise" baseFrequency="0.78" numOctaves="3" seed="73"/>
      <feColorMatrix type="saturate" values="0"/>
      <feComponentTransfer>
        <feFuncA type="table" tableValues="0 0.1"/>
      </feComponentTransfer>
    </filter>
  </defs>
  <rect width="1600" height="1000" fill="url(#bg)"/>
  <g filter="url(#blur)">
    <path d="M-120 285 C210 170 430 200 720 350 C1040 515 1300 430 1720 195 L1720 455 C1320 650 1020 690 690 510 C430 368 200 360 -120 520 Z" fill="url(#veil)" opacity="0.95"/>
    <path d="M-120 740 C260 585 580 610 900 710 C1160 790 1355 760 1720 610 L1720 940 C1280 990 880 930 520 830 C260 760 85 785 -120 880 Z" fill="#e879f9" opacity="0.10"/>
  </g>
  <path d="M120 165 L1480 165 M120 835 L1480 835" stroke="#ffffff" stroke-opacity="0.08" stroke-width="2"/>
  <path d="M360 -60 L360 1060 M800 -60 L800 1060 M1240 -60 L1240 1060" stroke="#ffffff" stroke-opacity="0.035" stroke-width="2"/>
  <rect width="1600" height="1000" filter="url(#grain)" opacity="0.86"/>
</svg>
